STARTFONT 2.3
FONT -FontForge-Zen Tokyo Zoo-Book-R-Normal--20-200-72-72-P-93-ISO10646-1
SIZE 20 72 72  2
FONTBOUNDINGBOX 26 26 -2 -5
COMMENT "Generated by fontforge, http://fontforge.sourceforge.net"
COMMENT "Copyright 2021 The Zen Tokyo Zoo Project Authors (https://github.com/googlefonts/zen-tokyo-zoo)"
STARTPROPERTIES 40
FOUNDRY "FontForge"
FAMILY_NAME "Zen Tokyo Zoo"
WEIGHT_NAME "Book"
SLANT "R"
SETWIDTH_NAME "Normal"
ADD_STYLE_NAME ""
PIXEL_SIZE 20
POINT_SIZE 200
RESOLUTION_X 72
RESOLUTION_Y 72
SPACING "P"
AVERAGE_WIDTH 93
CHARSET_REGISTRY "ISO10646"
CHARSET_ENCODING "1"
FONTNAME_REGISTRY ""
CHARSET_COLLECTIONS "ISO10646-1"
BITS_PER_PIXEL 2
FONT_NAME "ZenTokyoZoo-Regular"
FACE_NAME "Zen Tokyo Zoo Regular"
COPYRIGHT "Copyright 2021 The Zen Tokyo Zoo Project Authors (https://github.com/googlefonts/zen-tokyo-zoo)"
FONT_VERSION "1.002; ttfautohint (v1.8.3)"
FONT_ASCENT 16
FONT_DESCENT 4
UNDERLINE_POSITION -3
UNDERLINE_THICKNESS 1
X_HEIGHT 7
CAP_HEIGHT 15
RAW_ASCENT 800
RAW_DESCENT 200
NORM_SPACE 6
RELATIVE_WEIGHT 40
RELATIVE_SETWIDTH 50
SUPERSCRIPT_X 0
SUPERSCRIPT_Y 7
SUPERSCRIPT_SIZE 12
SUBSCRIPT_X 0
SUBSCRIPT_Y 1
SUBSCRIPT_SIZE 12
AVG_LOWERCASE_WIDTH 82
AVG_UPPERCASE_WIDTH 151
ENDPROPERTIES
CHARS 338
STARTCHAR CR
ENCODING 13
SWIDTH 600 0
DWIDTH 12 0
BBX 1 1 0 0
BITMAP
00
ENDCHAR
STARTCHAR space
ENCODING 32
SWIDTH 280 0
DWIDTH 6 0
BBX 1 1 0 0
BITMAP
00
ENDCHAR
STARTCHAR exclam
ENCODING 33
SWIDTH 196 0
DWIDTH 4 0
BBX 2 8 1 0
BITMAP
A0
A0
A0
A0
A0
50
50
A0
ENDCHAR
STARTCHAR quotedbl
ENCODING 34
SWIDTH 302 0
DWIDTH 6 0
BBX 6 3 0 5
BITMAP
9560
9560
4510
ENDCHAR
STARTCHAR numbersign
ENCODING 35
SWIDTH 513 0
DWIDTH 10 0
BBX 8 8 1 0
BITMAP
0A14
566A
566A
1104
AA59
AA59
1494
2890
ENDCHAR
STARTCHAR dollar
ENCODING 36
SWIDTH 379 0
DWIDTH 8 0
BBX 7 10 0 -1
BITMAP
0100
0650
2614
5954
2640
1954
0158
5658
2664
0200
ENDCHAR
STARTCHAR percent
ENCODING 37
SWIDTH 493 0
DWIDTH 10 0
BBX 10 8 0 0
BITMAP
2A0940
595600
59A800
1A9400
016A40
01A650
096650
150A80
ENDCHAR
STARTCHAR ampersand
ENCODING 38
SWIDTH 487 0
DWIDTH 10 0
BBX 8 8 1 0
BITMAP
0A90
1660
25A0
1620
5986
9656
9994
6A58
ENDCHAR
STARTCHAR quotesingle
ENCODING 39
SWIDTH 146 0
DWIDTH 3 0
BBX 3 3 0 5
BITMAP
94
94
44
ENDCHAR
STARTCHAR parenleft
ENCODING 40
SWIDTH 210 0
DWIDTH 4 0
BBX 4 9 0 -1
BITMAP
16
28
18
58
58
58
18
28
16
ENDCHAR
STARTCHAR parenright
ENCODING 41
SWIDTH 210 0
DWIDTH 4 0
BBX 4 9 0 -1
BITMAP
58
28
25
16
16
16
25
28
58
ENDCHAR
STARTCHAR asterisk
ENCODING 42
SWIDTH 358 0
DWIDTH 7 0
BBX 5 5 1 3
BITMAP
0500
5140
5040
1540
1100
ENDCHAR
STARTCHAR plus
ENCODING 43
SWIDTH 394 0
DWIDTH 8 0
BBX 6 6 1 1
BITMAP
0500
0A00
9A60
9A60
0A00
0A00
ENDCHAR
STARTCHAR comma
ENCODING 44
SWIDTH 216 0
DWIDTH 4 0
BBX 3 3 1 -1
BITMAP
44
94
A0
ENDCHAR
STARTCHAR hyphen
ENCODING 45
SWIDTH 326 0
DWIDTH 7 0
BBX 5 2 1 3
BITMAP
AA40
AA40
ENDCHAR
STARTCHAR period
ENCODING 46
SWIDTH 176 0
DWIDTH 4 0
BBX 3 2 0 0
BITMAP
14
58
ENDCHAR
STARTCHAR slash
ENCODING 47
SWIDTH 298 0
DWIDTH 6 0
BBX 6 8 0 0
BITMAP
0250
0580
0980
0940
1600
2500
2400
5800
ENDCHAR
STARTCHAR zero
ENCODING 48
SWIDTH 306 0
DWIDTH 6 0
BBX 6 8 0 0
BITMAP
1A80
5A50
5960
5960
5960
5960
5A50
1A80
ENDCHAR
STARTCHAR one
ENCODING 49
SWIDTH 306 0
DWIDTH 6 0
BBX 4 8 1 0
BITMAP
99
99
09
09
09
09
09
09
ENDCHAR
STARTCHAR two
ENCODING 50
SWIDTH 299 0
DWIDTH 6 0
BBX 6 8 0 0
BITMAP
1A40
1A50
0650
0980
2600
1400
6A90
6A90
ENDCHAR
STARTCHAR three
ENCODING 51
SWIDTH 324 0
DWIDTH 6 0
BBX 6 8 0 0
BITMAP
1A80
5660
0460
0140
0160
4560
2660
1A80
ENDCHAR
STARTCHAR four
ENCODING 52
SWIDTH 339 0
DWIDTH 7 0
BBX 7 8 0 0
BITMAP
0580
0980
1600
2600
0094
6994
6994
0094
ENDCHAR
STARTCHAR five
ENCODING 53
SWIDTH 363 0
DWIDTH 7 0
BBX 6 8 1 0
BITMAP
6A80
6A80
4400
5500
5480
0250
5980
2A40
ENDCHAR
STARTCHAR six
ENCODING 54
SWIDTH 306 0
DWIDTH 6 0
BBX 6 8 0 0
BITMAP
1A80
5A50
5800
5A40
5950
5A50
5A50
1A80
ENDCHAR
STARTCHAR seven
ENCODING 55
SWIDTH 298 0
DWIDTH 6 0
BBX 5 8 1 0
BITMAP
AA40
AA40
0000
0A00
1600
2500
2800
5800
ENDCHAR
STARTCHAR eight
ENCODING 56
SWIDTH 306 0
DWIDTH 6 0
BBX 6 8 0 0
BITMAP
1A80
5A50
5950
2650
1980
5650
5A50
1A80
ENDCHAR
STARTCHAR nine
ENCODING 57
SWIDTH 306 0
DWIDTH 6 0
BBX 6 8 0 0
BITMAP
1A80
5A50
5960
2560
1960
0160
5A50
1A80
ENDCHAR
STARTCHAR colon
ENCODING 58
SWIDTH 176 0
DWIDTH 4 0
BBX 3 5 0 0
BITMAP
14
58
00
14
58
ENDCHAR
STARTCHAR semicolon
ENCODING 59
SWIDTH 217 0
DWIDTH 4 0
BBX 3 6 1 -1
BITMAP
44
58
00
44
94
A0
ENDCHAR
STARTCHAR less
ENCODING 60
SWIDTH 450 0
DWIDTH 9 0
BBX 7 8 1 0
BITMAP
0018
0094
0264
5840
6680
0A64
0194
0018
ENDCHAR
STARTCHAR equal
ENCODING 61
SWIDTH 344 0
DWIDTH 7 0
BBX 5 5 1 1
BITMAP
AA80
AA80
0000
AA80
AA80
ENDCHAR
STARTCHAR greater
ENCODING 62
SWIDTH 450 0
DWIDTH 9 0
BBX 7 8 1 0
BITMAP
9000
5900
6590
0668
0890
A600
6800
8000
ENDCHAR
STARTCHAR question
ENCODING 63
SWIDTH 346 0
DWIDTH 7 0
BBX 5 8 1 0
BITMAP
6A00
9980
1280
0980
1600
2500
0000
2500
ENDCHAR
STARTCHAR at
ENCODING 64
SWIDTH 490 0
DWIDTH 10 0
BBX 9 8 0 0
BITMAP
07F900
180640
25A580
661580
566580
195940
155400
055800
ENDCHAR
STARTCHAR A
ENCODING 65
SWIDTH 798 0
DWIDTH 16 0
BBX 16 16 0 0
BITMAP
000A5000
00169400
00258800
00295800
005A2500
00969600
00655A00
02682940
02582580
05941650
09669960
0A5AA9A0
16800194
259AA658
29400168
5A0000A5
ENDCHAR
STARTCHAR B
ENCODING 66
SWIDTH 784 0
DWIDTH 16 0
BBX 14 16 1 0
BITMAP
A5AAA800
A5AAA600
A5000580
A5AAA240
A5000A50
A5000A50
A5AAA980
A5AAA480
A5000660
A5AAA460
A50005A0
A50005A0
A50009A0
A5AAA650
A5AAA580
A5AAA900
ENDCHAR
STARTCHAR C
ENCODING 67
SWIDTH 776 0
DWIDTH 16 0
BBX 15 16 0 0
BITMAP
001AAA40
0196A964
066AA994
09640180
26800000
29400000
5A000000
5A000000
5A000000
5A000000
29400000
26800000
09640180
066AA994
0196A964
001AAA40
ENDCHAR
STARTCHAR D
ENCODING 68
SWIDTH 806 0
DWIDTH 16 0
BBX 15 16 1 0
BITMAP
A5AA9000
A5AA5900
A5006640
A5AA4590
A5006160
A50008A0
A5000594
A5000254
A5000254
A5000294
A50005A0
A5000A60
A5006690
A5AAA640
A5AA5900
A5AA9000
ENDCHAR
STARTCHAR E
ENCODING 69
SWIDTH 677 0
DWIDTH 14 0
BBX 12 16 1 0
BITMAP
A5AAAA
A5AAAA
A50000
A5AAAA
A50000
A50000
A5AAA4
A50000
A5AAA4
A5AAA4
A50000
A50000
A50000
A5AAAA
A5AAAA
A5AAAA
ENDCHAR
STARTCHAR F
ENCODING 70
SWIDTH 677 0
DWIDTH 14 0
BBX 12 16 1 0
BITMAP
A5AAAA
A5AAAA
A50000
A5AAAA
A50000
A50000
A5AAA4
A50000
A5AAA4
A5AAA4
A50000
A50000
A50000
A50000
A50000
A50000
ENDCHAR
STARTCHAR G
ENCODING 71
SWIDTH 872 0
DWIDTH 17 0
BBX 17 16 0 0
BITMAP
001AAA4000
0196A96400
066AA99900
0964019500
2680006400
2940000000
5A00000000
5A002AAA40
5A002AAA40
5A00000000
29402AAA40
2680001440
0964019600
066AA99900
0196A96400
001AAA4000
ENDCHAR
STARTCHAR H
ENCODING 72
SWIDTH 781 0
DWIDTH 16 0
BBX 14 16 1 0
BITMAP
A5000960
A5000960
A5000960
A5000960
A5000960
A5000960
A5AA9960
A5000960
A5AA9960
A5AA9960
A5000960
A5000960
A5000960
A5000960
A5000960
A5000960
ENDCHAR
STARTCHAR I
ENCODING 73
SWIDTH 262 0
DWIDTH 5 0
BBX 4 16 1 0
BITMAP
A5
A5
A5
A5
A5
A5
A5
A5
A5
A5
A5
A5
A5
A5
A5
A5
ENDCHAR
STARTCHAR J
ENCODING 74
SWIDTH 674 0
DWIDTH 13 0
BBX 13 16 0 0
BITMAP
00002540
00002540
00002540
00002540
00002540
00002540
00002540
00002540
00002540
00002540
96002540
5A002940
29809A00
266A6500
096A5800
01AA9000
ENDCHAR
STARTCHAR K
ENCODING 75
SWIDTH 739 0
DWIDTH 15 0
BBX 14 16 1 0
BITMAP
A5002580
A5009940
A5016600
A5069800
A5096000
A5165000
A5258000
A5990000
A6660000
A5994000
A5269000
A5096000
A5059800
A5026600
A5009940
A5002590
ENDCHAR
STARTCHAR L
ENCODING 76
SWIDTH 604 0
DWIDTH 12 0
BBX 11 16 1 0
BITMAP
A50000
A50000
A50000
A50000
A50000
A50000
A50000
A50000
A50000
A50000
A50000
A50000
A50000
A5AAA4
A5AAA4
A5AAA4
ENDCHAR
STARTCHAR M
ENCODING 77
SWIDTH 909 0
DWIDTH 18 0
BBX 17 16 1 0
BITMAP
A500002940
A540016940
A580022940
A560096940
A594166940
A558252940
A566596940
A599562940
A525882940
A50A602940
A505802940
A502402940
A500002940
A500002940
A500002940
A500002940
ENDCHAR
STARTCHAR N
ENCODING 78
SWIDTH 796 0
DWIDTH 16 0
BBX 14 16 1 0
BITMAP
A50005A0
A54005A0
A58005A0
A56005A0
A59405A0
A56905A0
A59605A0
A55985A0
A52655A0
A50965A0
A50595A0
A50265A0
A50095A0
A50065A0
A50015A0
A50005A0
ENDCHAR
STARTCHAR O
ENCODING 79
SWIDTH 894 0
DWIDTH 18 0
BBX 18 16 0 0
BITMAP
001AAA4000
0196A96000
066AAA9800
096401A600
2680006940
2940002580
5A00001640
5A00000A50
5A00000A50
5A00001640
2940002580
2680006940
096401A600
066AA99800
0196A96000
001AAA4000
ENDCHAR
STARTCHAR P
ENCODING 80
SWIDTH 743 0
DWIDTH 15 0
BBX 14 16 1 0
BITMAP
A5AAA800
A5AAA600
A5000580
A5AAA240
A5000A50
A5000A50
A5AAA980
A5AAA480
A5000600
A5AAA400
A5000000
A5000000
A5000000
A5000000
A5000000
A5000000
ENDCHAR
STARTCHAR Q
ENCODING 81
SWIDTH 911 0
DWIDTH 18 0
BBX 18 16 0 0
BITMAP
001AAA4000
0196A96000
066AAA9800
096401A600
2680006940
2940002580
5A00001680
5A00000A50
5A00000A50
5A00009640
2940016580
2680059940
0964015640
066AA85590
0196A95940
001AAA4500
ENDCHAR
STARTCHAR R
ENCODING 82
SWIDTH 745 0
DWIDTH 15 0
BBX 14 16 1 0
BITMAP
A5AAA800
A5AAA600
A5000580
A5AAA240
A5000A50
A5000A50
A5AAA980
A5AAA480
A5000600
A5AAA400
A5014400
A5025800
A500A500
A5009600
A5002940
A5002580
ENDCHAR
STARTCHAR S
ENCODING 83
SWIDTH 660 0
DWIDTH 13 0
BBX 13 16 0 0
BITMAP
01AA9000
096A9900
266A6600
29405940
5A001000
59900000
265A4000
18656400
02919600
001A5940
00006580
01002580
59406940
266AA600
196A5800
01AA9000
ENDCHAR
STARTCHAR T
ENCODING 84
SWIDTH 641 0
DWIDTH 13 0
BBX 13 16 0 0
BITMAP
6AAAAA40
6AAAAA40
00000000
6AAAAA40
00150000
005A0000
005A0000
005A0000
005A0000
005A0000
005A0000
005A0000
005A0000
005A0000
005A0000
005A0000
ENDCHAR
STARTCHAR U
ENCODING 85
SWIDTH 702 0
DWIDTH 14 0
BBX 12 16 1 0
BITMAP
A5005A
A5005A
A5005A
A5005A
A5005A
A5005A
A5005A
A5005A
A5005A
A5005A
A5005A
95005A
5A41A6
26AA98
19AA64
01AA80
ENDCHAR
STARTCHAR V
ENCODING 86
SWIDTH 758 0
DWIDTH 15 0
BBX 15 16 0 0
BITMAP
5A000258
29400594
258009A0
16800960
0A501650
09602680
05A02580
02945940
02589A00
01689600
00A56500
00962800
005A5800
00295400
00259000
00168000
ENDCHAR
STARTCHAR W
ENCODING 87
SWIDTH 972 0
DWIDTH 19 0
BBX 19 16 0 0
BITMAP
5600960168
5900A50258
2940650294
2581680590
16825905A0
1642954960
0A51958A50
0965A29640
05A5629680
0592565580
0296596940
025985A500
0168859200
0165429500
00A5025800
0096016800
ENDCHAR
STARTCHAR X
ENCODING 88
SWIDTH 712 0
DWIDTH 14 0
BBX 14 16 0 0
BITMAP
25802650
16502980
09609600
05996500
02695800
00A65400
00596000
00258000
00165000
0089A000
01629800
02566500
09949600
0A605940
25802580
59401660
ENDCHAR
STARTCHAR Y
ENCODING 89
SWIDTH 769 0
DWIDTH 15 0
BBX 15 16 0 0
BITMAP
59400258
258009A4
1A601660
05942580
02589940
01A62600
00995800
00259400
00111000
00055000
000A5000
000A5000
000A5000
000A5000
000A5000
000A5000
ENDCHAR
STARTCHAR Z
ENCODING 90
SWIDTH 708 0
DWIDTH 14 0
BBX 14 16 0 0
BITMAP
1AAA9A60
1AAA6580
00005940
1AA99600
00026900
00059800
00096000
00165000
00298000
00960000
01650000
02580000
09A40000
1666AA40
259AAA40
596AAA40
ENDCHAR
STARTCHAR bracketleft
ENCODING 91
SWIDTH 320 0
DWIDTH 6 0
BBX 5 9 1 -1
BITMAP
5640
A640
A000
A000
A000
A000
A000
A640
5640
ENDCHAR
STARTCHAR backslash
ENCODING 92
SWIDTH 298 0
DWIDTH 6 0
BBX 6 8 0 0
BITMAP
5800
2400
2500
1600
0940
0980
0580
0250
ENDCHAR
STARTCHAR bracketright
ENCODING 93
SWIDTH 320 0
DWIDTH 6 0
BBX 5 9 1 -1
BITMAP
A540
A940
0940
0940
0940
0940
0940
A940
A540
ENDCHAR
STARTCHAR asciicircum
ENCODING 94
SWIDTH 309 0
DWIDTH 6 0
BBX 4 3 1 4
BITMAP
14
25
96
ENDCHAR
STARTCHAR underscore
ENCODING 95
SWIDTH 472 0
DWIDTH 9 0
BBX 8 2 1 0
BITMAP
AAA9
AAA9
ENDCHAR
STARTCHAR grave
ENCODING 96
SWIDTH 195 0
DWIDTH 4 0
BBX 2 2 1 9
BITMAP
80
20
ENDCHAR
STARTCHAR a
ENCODING 97
SWIDTH 414 0
DWIDTH 8 0
BBX 8 8 0 0
BITMAP
0290
05A0
09A0
0694
2658
26A4
5AA6
9406
ENDCHAR
STARTCHAR b
ENCODING 98
SWIDTH 423 0
DWIDTH 8 0
BBX 8 8 0 0
BITMAP
5AA8
5AA5
5816
5AA9
5AA6
580A
5AA6
5AA8
ENDCHAR
STARTCHAR c
ENCODING 99
SWIDTH 446 0
DWIDTH 9 0
BBX 8 8 0 0
BITMAP
06A9
15A5
2904
5800
5800
2904
15A5
06A9
ENDCHAR
STARTCHAR d
ENCODING 100
SWIDTH 450 0
DWIDTH 9 0
BBX 9 8 0 0
BITMAP
5AA400
5A9500
581A00
580940
580940
581A00
5A9500
5AA400
ENDCHAR
STARTCHAR e
ENCODING 101
SWIDTH 363 0
DWIDTH 7 0
BBX 7 8 0 0
BITMAP
5AA8
5AA8
5800
5AA0
5AA0
5800
5AA8
5AA8
ENDCHAR
STARTCHAR f
ENCODING 102
SWIDTH 365 0
DWIDTH 7 0
BBX 7 8 0 0
BITMAP
5AA8
5AA8
5800
5AA0
5AA0
5800
5800
5800
ENDCHAR
STARTCHAR g
ENCODING 103
SWIDTH 483 0
DWIDTH 10 0
BBX 9 8 0 0
BITMAP
06A900
15A640
290400
581A80
581A80
290980
15A600
06A800
ENDCHAR
STARTCHAR h
ENCODING 104
SWIDTH 428 0
DWIDTH 9 0
BBX 8 8 0 0
BITMAP
5806
5806
5806
5AA6
5AA6
5806
5806
5806
ENDCHAR
STARTCHAR i
ENCODING 105
SWIDTH 176 0
DWIDTH 4 0
BBX 3 8 0 0
BITMAP
58
58
58
58
58
58
58
58
ENDCHAR
STARTCHAR j
ENCODING 106
SWIDTH 390 0
DWIDTH 8 0
BBX 7 8 0 0
BITMAP
0028
0028
0028
0028
0028
5828
2698
1AA0
ENDCHAR
STARTCHAR k
ENCODING 107
SWIDTH 381 0
DWIDTH 8 0
BBX 7 8 0 0
BITMAP
5858
5894
5960
5A80
5980
5A50
5964
5858
ENDCHAR
STARTCHAR l
ENCODING 108
SWIDTH 330 0
DWIDTH 7 0
BBX 7 8 0 0
BITMAP
5800
5800
5800
5800
5800
5800
5AA4
5AA4
ENDCHAR
STARTCHAR m
ENCODING 109
SWIDTH 501 0
DWIDTH 10 0
BBX 10 8 0 0
BITMAP
580350
5A0A50
59A650
5A6A50
599650
585250
580250
580250
ENDCHAR
STARTCHAR n
ENCODING 110
SWIDTH 444 0
DWIDTH 9 0
BBX 8 8 0 0
BITMAP
580A
5A0A
598A
5A9A
596A
589A
582A
581A
ENDCHAR
STARTCHAR o
ENCODING 111
SWIDTH 494 0
DWIDTH 10 0
BBX 10 8 0 0
BITMAP
06A900
15A640
290580
580250
580250
290580
15A640
06A900
ENDCHAR
STARTCHAR p
ENCODING 112
SWIDTH 412 0
DWIDTH 8 0
BBX 8 8 0 0
BITMAP
5AA8
5AA5
5816
5AA5
5AA4
5800
5800
5800
ENDCHAR
STARTCHAR q
ENCODING 113
SWIDTH 494 0
DWIDTH 10 0
BBX 10 8 0 0
BITMAP
06A900
15A640
290580
580250
580650
291680
15A980
06AA00
ENDCHAR
STARTCHAR r
ENCODING 114
SWIDTH 412 0
DWIDTH 8 0
BBX 8 8 0 0
BITMAP
5AA8
5AA5
5816
5AA5
5AA4
5894
5858
5825
ENDCHAR
STARTCHAR s
ENCODING 115
SWIDTH 379 0
DWIDTH 8 0
BBX 7 8 0 0
BITMAP
1AA0
2698
5800
2590
0658
0428
6698
1AA0
ENDCHAR
STARTCHAR t
ENCODING 116
SWIDTH 349 0
DWIDTH 7 0
BBX 7 8 0 0
BITMAP
6AA4
6AA4
0540
0540
0540
0540
0540
0540
ENDCHAR
STARTCHAR u
ENCODING 117
SWIDTH 400 0
DWIDTH 8 0
BBX 8 8 0 0
BITMAP
5825
5825
5825
5825
5825
2828
2698
0AA0
ENDCHAR
STARTCHAR v
ENCODING 118
SWIDTH 394 0
DWIDTH 8 0
BBX 8 8 0 0
BITMAP
9426
5825
2858
2594
1690
0A60
0990
05C0
ENDCHAR
STARTCHAR w
ENCODING 119
SWIDTH 521 0
DWIDTH 10 0
BBX 10 8 0 0
BITMAP
9494A0
58A560
196960
2A6A50
276680
16A580
0A9640
094A40
ENDCHAR
STARTCHAR x
ENCODING 120
SWIDTH 369 0
DWIDTH 7 0
BBX 7 8 0 0
BITMAP
5858
26A4
1A60
09C0
0A50
1660
2594
9858
ENDCHAR
STARTCHAR y
ENCODING 121
SWIDTH 422 0
DWIDTH 8 0
BBX 8 8 0 0
BITMAP
5816
2629
0998
05A0
0140
0250
0250
0250
ENDCHAR
STARTCHAR z
ENCODING 122
SWIDTH 409 0
DWIDTH 8 0
BBX 7 8 1 0
BITMAP
AAA4
AAA4
0260
0980
2600
9800
AAA4
AAA4
ENDCHAR
STARTCHAR braceleft
ENCODING 123
SWIDTH 443 0
DWIDTH 9 0
BBX 7 9 1 -1
BITMAP
0568
0968
0940
A940
A940
0940
0940
0968
0568
ENDCHAR
STARTCHAR bar
ENCODING 124
SWIDTH 196 0
DWIDTH 4 0
BBX 2 9 1 -1
BITMAP
A0
A0
A0
A0
A0
A0
A0
A0
A0
ENDCHAR
STARTCHAR braceright
ENCODING 125
SWIDTH 506 0
DWIDTH 10 0
BBX 7 9 2 -1
BITMAP
6540
6580
0580
0598
0598
0580
0580
6580
6540
ENDCHAR
STARTCHAR asciitilde
ENCODING 126
SWIDTH 450 0
DWIDTH 9 0
BBX 7 3 1 2
BITMAP
A904
A904
41A8
ENDCHAR
STARTCHAR uni00A0
ENCODING 160
SWIDTH 280 0
DWIDTH 6 0
BBX 1 1 0 0
BITMAP
00
ENDCHAR
STARTCHAR exclamdown
ENCODING 161
SWIDTH 196 0
DWIDTH 4 0
BBX 2 8 1 -2
BITMAP
50
A0
50
A0
A0
A0
A0
A0
ENDCHAR
STARTCHAR cent
ENCODING 162
SWIDTH 305 0
DWIDTH 6 0
BBX 6 9 0 -1
BITMAP
0940
1A80
6A90
A440
A000
A440
6A50
1A80
0940
ENDCHAR
STARTCHAR sterling
ENCODING 163
SWIDTH 408 0
DWIDTH 8 0
BBX 8 8 0 0
BITMAP
2A90
9A60
0000
AA90
AA90
1400
AAA9
AAA9
ENDCHAR
STARTCHAR currency
ENCODING 164
SWIDTH 401 0
DWIDTH 8 0
BBX 6 6 1 1
BITMAP
5050
9A60
2580
2580
5A50
5050
ENDCHAR
STARTCHAR yen
ENCODING 165
SWIDTH 423 0
DWIDTH 8 0
BBX 8 8 0 0
BITMAP
5816
2625
0998
05A0
0140
2659
2659
0250
ENDCHAR
STARTCHAR brokenbar
ENCODING 166
SWIDTH 196 0
DWIDTH 4 0
BBX 2 9 1 0
BITMAP
50
A0
A0
A0
00
50
A0
A0
A0
ENDCHAR
STARTCHAR section
ENCODING 167
SWIDTH 322 0
DWIDTH 6 0
BBX 6 8 0 0
BITMAP
2FD0
5900
1190
5960
55A0
2450
0660
2FC0
ENDCHAR
STARTCHAR dieresis
ENCODING 168
SWIDTH 287 0
DWIDTH 6 0
BBX 4 1 1 10
BITMAP
96
ENDCHAR
STARTCHAR copyright
ENCODING 169
SWIDTH 493 0
DWIDTH 10 0
BBX 10 9 0 0
BITMAP
02A400
180200
200080
51A480
520050
520080
21A480
180600
02A400
ENDCHAR
STARTCHAR ordfeminine
ENCODING 170
SWIDTH 331 0
DWIDTH 7 0
BBX 5 4 1 4
BITMAP
2900
6A00
6A00
A640
ENDCHAR
STARTCHAR guillemotleft
ENCODING 171
SWIDTH 298 0
DWIDTH 6 0
BBX 4 4 1 2
BITMAP
56
55
89
52
ENDCHAR
STARTCHAR logicalnot
ENCODING 172
SWIDTH 420 0
DWIDTH 8 0
BBX 7 4 1 1
BITMAP
AAA4
AAA4
0044
0058
ENDCHAR
STARTCHAR uni00AD
ENCODING 173
SWIDTH 326 0
DWIDTH 7 0
BBX 5 2 1 3
BITMAP
AA40
AA40
ENDCHAR
STARTCHAR registered
ENCODING 174
SWIDTH 493 0
DWIDTH 10 0
BBX 10 9 0 0
BITMAP
02A400
180200
200080
526480
526450
521480
221480
180600
02A400
ENDCHAR
STARTCHAR macron
ENCODING 175
SWIDTH 331 0
DWIDTH 7 0
BBX 5 1 1 9
BITMAP
AA40
ENDCHAR
STARTCHAR degree
ENCODING 176
SWIDTH 298 0
DWIDTH 6 0
BBX 4 4 1 4
BITMAP
69
96
96
69
ENDCHAR
STARTCHAR plusminus
ENCODING 177
SWIDTH 418 0
DWIDTH 8 0
BBX 7 8 1 0
BITMAP
0900
0900
9964
9964
0900
0400
AAA4
AAA4
ENDCHAR
STARTCHAR uni00B2
ENCODING 178
SWIDTH 233 0
DWIDTH 5 0
BBX 3 4 1 4
BITMAP
B4
24
64
A4
ENDCHAR
STARTCHAR uni00B3
ENCODING 179
SWIDTH 228 0
DWIDTH 5 0
BBX 3 4 1 4
BITMAP
A4
14
14
64
ENDCHAR
STARTCHAR acute
ENCODING 180
SWIDTH 195 0
DWIDTH 4 0
BBX 2 2 1 9
BITMAP
20
80
ENDCHAR
STARTCHAR uni00B5
ENCODING 181
SWIDTH 506 0
DWIDTH 10 0
BBX 9 10 1 -2
BITMAP
A09400
A09400
A09400
A09400
A09400
A09400
A66600
A69A40
A00000
A00000
ENDCHAR
STARTCHAR paragraph
ENCODING 182
SWIDTH 435 0
DWIDTH 9 0
BBX 8 8 0 0
BITMAP
2AA9
5AA9
5400
69A2
19A2
00A2
00A2
00A2
ENDCHAR
STARTCHAR periodcentered
ENCODING 183
SWIDTH 176 0
DWIDTH 4 0
BBX 3 2 0 3
BITMAP
14
58
ENDCHAR
STARTCHAR cedilla
ENCODING 184
SWIDTH 261 0
DWIDTH 5 0
BBX 4 4 1 -4
BITMAP
10
68
05
68
ENDCHAR
STARTCHAR uni00B9
ENCODING 185
SWIDTH 218 0
DWIDTH 4 0
BBX 3 4 1 4
BITMAP
94
14
14
14
ENDCHAR
STARTCHAR ordmasculine
ENCODING 186
SWIDTH 335 0
DWIDTH 7 0
BBX 5 4 1 4
BITMAP
7E00
9180
9580
6A00
ENDCHAR
STARTCHAR guillemotright
ENCODING 187
SWIDTH 298 0
DWIDTH 6 0
BBX 4 4 1 2
BITMAP
95
55
62
85
ENDCHAR
STARTCHAR onequarter
ENCODING 188
SWIDTH 429 0
DWIDTH 9 0
BBX 7 8 1 0
BITMAP
6064
6050
2180
2140
0624
0950
1458
2458
ENDCHAR
STARTCHAR onehalf
ENCODING 189
SWIDTH 437 0
DWIDTH 9 0
BBX 8 8 0 0
BITMAP
6818
0824
0850
0495
0156
0605
0515
1415
ENDCHAR
STARTCHAR threequarters
ENCODING 190
SWIDTH 409 0
DWIDTH 8 0
BBX 8 8 0 0
BITMAP
1414
0424
5850
1590
0158
0624
0915
1415
ENDCHAR
STARTCHAR questiondown
ENCODING 191
SWIDTH 346 0
DWIDTH 7 0
BBX 5 8 1 -1
BITMAP
1500
0000
2500
2500
8800
A000
A980
2A00
ENDCHAR
STARTCHAR Agrave
ENCODING 192
SWIDTH 798 0
DWIDTH 16 0
BBX 16 21 0 0
BITMAP
00680000
00260000
00094000
00058000
00000000
000A5000
00169400
00258800
00295800
005A2500
00969600
00655A00
02682940
02582580
05941650
09669960
0A5AA9A0
16800194
259AA658
29400168
5A0000A5
ENDCHAR
STARTCHAR Aacute
ENCODING 193
SWIDTH 798 0
DWIDTH 16 0
BBX 16 21 0 0
BITMAP
00002500
00005800
00009400
00026000
00000000
000A5000
00169400
00258800
00295800
005A2500
00969600
00655A00
02682940
02582580
05941650
09669960
0A5AA9A0
16800194
259AA658
29400168
5A0000A5
ENDCHAR
STARTCHAR Acircumflex
ENCODING 194
SWIDTH 798 0
DWIDTH 16 0
BBX 16 21 0 0
BITMAP
00098000
00262000
00589800
00942600
00000000
000A5000
00169400
00258800
00295800
005A2500
00969600
00655A00
02682940
02582580
05941650
09669960
0A5AA9A0
16800194
259AA658
29400168
5A0000A5
ENDCHAR
STARTCHAR Atilde
ENCODING 195
SWIDTH 798 0
DWIDTH 16 0
BBX 16 20 0 0
BITMAP
00290100
00914600
00406800
00000000
000A5000
00169400
00258800
00295800
005A2500
00969600
00655A00
02682940
02582580
05941650
09669960
0A5AA9A0
16800194
259AA658
29400168
5A0000A5
ENDCHAR
STARTCHAR Adieresis
ENCODING 196
SWIDTH 798 0
DWIDTH 16 0
BBX 16 21 0 0
BITMAP
00A41A00
02082080
02082080
00A41A00
00000000
000A5000
00169400
00258800
00295800
005A2500
00969600
00655A00
02682940
02582580
05941650
09669960
0A5AA9A0
16800194
259AA658
29400168
5A0000A5
ENDCHAR
STARTCHAR Aring
ENCODING 197
SWIDTH 798 0
DWIDTH 16 0
BBX 16 21 0 0
BITMAP
00069000
00082000
00082000
00069000
00000000
000A5000
00169400
00258800
00295800
005A2500
00969600
00655A00
02682940
02582580
05941650
09669960
0A5AA9A0
16800194
259AA658
29400168
5A0000A5
ENDCHAR
STARTCHAR AE
ENCODING 198
SWIDTH 1078 0
DWIDTH 22 0
BBX 21 16 0 0
BITMAP
00005A6AAA80
00015A6AAA80
000219000000
0005296AAA80
000869400000
001665800000
0022659AA900
005965800000
008A169AA900
0165169AA900
026806800000
05959A500000
09669A500000
16500956AA80
258A9966AA80
59400966AA80
ENDCHAR
STARTCHAR Ccedilla
ENCODING 199
SWIDTH 776 0
DWIDTH 16 0
BBX 15 21 0 -5
BITMAP
001AAA40
0196A964
066AA994
09640180
26800000
29400000
5A000000
5A000000
5A000000
5A000000
29400000
26800000
09640180
066AA994
0196A964
001AAA40
00010000
00069000
00042000
00042000
00069000
ENDCHAR
STARTCHAR Egrave
ENCODING 200
SWIDTH 677 0
DWIDTH 14 0
BBX 12 21 1 0
BITMAP
005800
002600
000A40
000580
000000
A5AAAA
A5AAAA
A50000
A5AAAA
A50000
A50000
A5AAA4
A50000
A5AAA4
A5AAA4
A50000
A50000
A50000
A5AAAA
A5AAAA
A5AAAA
ENDCHAR
STARTCHAR Eacute
ENCODING 201
SWIDTH 677 0
DWIDTH 14 0
BBX 12 21 1 0
BITMAP
000980
000A00
002500
005800
000000
A5AAAA
A5AAAA
A50000
A5AAAA
A50000
A50000
A5AAA4
A50000
A5AAA4
A5AAA4
A50000
A50000
A50000
A5AAAA
A5AAAA
A5AAAA
ENDCHAR
STARTCHAR Ecircumflex
ENCODING 202
SWIDTH 677 0
DWIDTH 14 0
BBX 12 21 1 0
BITMAP
002500
009880
026260
058094
000000
A5AAAA
A5AAAA
A50000
A5AAAA
A50000
A50000
A5AAA4
A50000
A5AAA4
A5AAA4
A50000
A50000
A50000
A5AAAA
A5AAAA
A5AAAA
ENDCHAR
STARTCHAR Edieresis
ENCODING 203
SWIDTH 677 0
DWIDTH 14 0
BBX 12 21 1 0
BITMAP
0290A4
082145
082145
0290A4
000000
A5AAAA
A5AAAA
A50000
A5AAAA
A50000
A50000
A5AAA4
A50000
A5AAA4
A5AAA4
A50000
A50000
A50000
A5AAAA
A5AAAA
A5AAAA
ENDCHAR
STARTCHAR Igrave
ENCODING 204
SWIDTH 262 0
DWIDTH 5 0
BBX 6 21 -1 0
BITMAP
9400
6800
2600
0940
0000
0A50
0A50
0A50
0A50
0A50
0A50
0A50
0A50
0A50
0A50
0A50
0A50
0A50
0A50
0A50
0A50
ENDCHAR
STARTCHAR Iacute
ENCODING 205
SWIDTH 262 0
DWIDTH 5 0
BBX 5 21 1 0
BITMAP
0580
0940
2600
6800
0000
A500
A500
A500
A500
A500
A500
A500
A500
A500
A500
A500
A500
A500
A500
A500
A500
ENDCHAR
STARTCHAR Icircumflex
ENCODING 206
SWIDTH 262 0
DWIDTH 5 0
BBX 9 21 -2 0
BITMAP
069000
095800
262500
581A40
000000
029400
029400
029400
029400
029400
029400
029400
029400
029400
029400
029400
029400
029400
029400
029400
029400
ENDCHAR
STARTCHAR Idieresis
ENCODING 207
SWIDTH 262 0
DWIDTH 5 0
BBX 9 21 -2 0
BITMAP
680A40
821040
821040
680A40
000000
029400
029400
029400
029400
029400
029400
029400
029400
029400
029400
029400
029400
029400
029400
029400
029400
ENDCHAR
STARTCHAR Eth
ENCODING 208
SWIDTH 856 0
DWIDTH 17 0
BBX 17 16 0 0
BITMAP
0A5AA90000
0A5AA59000
0A50065400
0A5AA46900
0A50061600
0540008A00
6AAA005940
0000002540
6AAA002540
6AAA002940
0540005A00
0A5000A600
0A50066900
0A5AAA5400
0A5AA59000
0A5AA90000
ENDCHAR
STARTCHAR Ntilde
ENCODING 209
SWIDTH 796 0
DWIDTH 16 0
BBX 14 20 1 0
BITMAP
00A40400
02051400
0101A000
00000000
A50005A0
A54005A0
A58005A0
A56005A0
A59405A0
A56905A0
A59605A0
A55985A0
A52655A0
A50965A0
A50595A0
A50265A0
A50095A0
A50065A0
A50015A0
A50005A0
ENDCHAR
STARTCHAR Ograve
ENCODING 210
SWIDTH 894 0
DWIDTH 18 0
BBX 18 21 0 0
BITMAP
0016000000
0009800000
0002500000
0001600000
0000000000
001AAA4000
0196A96000
066AAA9800
096401A600
2680006940
2940002580
5A00001640
5A00000A50
5A00000A50
5A00001640
2940002580
2680006940
096401A600
066AA99800
0196A96000
001AAA4000
ENDCHAR
STARTCHAR Oacute
ENCODING 211
SWIDTH 894 0
DWIDTH 18 0
BBX 18 21 0 0
BITMAP
0000160000
0000250000
0000980000
0000A00000
0000000000
001AAA4000
0196A96000
066AAA9800
096401A600
2680006940
2940002580
5A00001640
5A00000A50
5A00000A50
5A00001640
2940002580
2680006940
096401A600
066AA99800
0196A96000
001AAA4000
ENDCHAR
STARTCHAR Ocircumflex
ENCODING 212
SWIDTH 894 0
DWIDTH 18 0
BBX 18 21 0 0
BITMAP
0002500000
0009880000
0016260000
0069094000
0000000000
001AAA4000
0196A96000
066AAA9800
096401A600
2680006940
2940002580
5A00001640
5A00000A50
5A00000A50
5A00001640
2940002580
2680006940
096401A600
066AA99800
0196A96000
001AAA4000
ENDCHAR
STARTCHAR Otilde
ENCODING 213
SWIDTH 894 0
DWIDTH 18 0
BBX 18 20 0 0
BITMAP
000A404000
0020514000
00101A0000
0000000000
001AAA4000
0196A96000
066AAA9800
096401A600
2680006940
2940002580
5A00001640
5A00000A50
5A00000A50
5A00001640
2940002580
2680006940
096401A600
066AA99800
0196A96000
001AAA4000
ENDCHAR
STARTCHAR Odieresis
ENCODING 214
SWIDTH 894 0
DWIDTH 18 0
BBX 18 21 0 0
BITMAP
0029068000
0082145000
0082145000
0029068000
0000000000
001AAA4000
0196A96000
066AAA9800
096401A600
2680006940
2940002580
5A00001640
5A00000A50
5A00000A50
5A00001640
2940002580
2680006940
096401A600
066AA99800
0196A96000
001AAA4000
ENDCHAR
STARTCHAR multiply
ENCODING 215
SWIDTH 370 0
DWIDTH 7 0
BBX 6 6 1 1
BITMAP
1040
9650
5980
2600
9950
2140
ENDCHAR
STARTCHAR Oslash
ENCODING 216
SWIDTH 894 0
DWIDTH 18 0
BBX 18 17 0 -1
BITMAP
001AAA2000
0096A85900
066AA4A600
09A4025900
2680099580
2940166680
5A00258640
5A089A0A50
5A15650A50
5A22500680
2889802580
2556006940
166901A600
0895AA9800
0666A96000
019AAA4000
0040000000
ENDCHAR
STARTCHAR Ugrave
ENCODING 217
SWIDTH 702 0
DWIDTH 14 0
BBX 12 21 1 0
BITMAP
058000
025000
01A000
009800
000000
A5005A
A5005A
A5005A
A5005A
A5005A
A5005A
A5005A
A5005A
A5005A
A5005A
A5005A
95005A
5A41A6
26AA98
19AA64
01AA80
ENDCHAR
STARTCHAR Uacute
ENCODING 218
SWIDTH 702 0
DWIDTH 14 0
BBX 12 21 1 0
BITMAP
000250
000580
000A00
002600
000000
A5005A
A5005A
A5005A
A5005A
A5005A
A5005A
A5005A
A5005A
A5005A
A5005A
A5005A
95005A
5A41A6
26AA98
19AA64
01AA80
ENDCHAR
STARTCHAR Ucircumflex
ENCODING 219
SWIDTH 702 0
DWIDTH 14 0
BBX 12 21 1 0
BITMAP
009800
026200
058980
094260
000000
A5005A
A5005A
A5005A
A5005A
A5005A
A5005A
A5005A
A5005A
A5005A
A5005A
A5005A
95005A
5A41A6
26AA98
19AA64
01AA80
ENDCHAR
STARTCHAR Udieresis
ENCODING 220
SWIDTH 702 0
DWIDTH 14 0
BBX 12 21 1 0
BITMAP
0A41A0
208208
208208
0A41A0
000000
A5005A
A5005A
A5005A
A5005A
A5005A
A5005A
A5005A
A5005A
A5005A
A5005A
A5005A
95005A
5A41A6
26AA98
19AA64
01AA80
ENDCHAR
STARTCHAR Yacute
ENCODING 221
SWIDTH 769 0
DWIDTH 15 0
BBX 15 21 0 0
BITMAP
00005800
00009400
00026000
00058000
00000000
59400258
258009A4
1A601660
05942580
02589940
01A62600
00995800
00259400
00111000
00055000
000A5000
000A5000
000A5000
000A5000
000A5000
000A5000
ENDCHAR
STARTCHAR Thorn
ENCODING 222
SWIDTH 743 0
DWIDTH 15 0
BBX 14 16 1 0
BITMAP
A5000000
A5000000
A5000000
A5AAA400
A5AAAA00
A5000580
A5AAA280
A5000A50
A5000A50
A5AAA940
A5AAA480
A5000600
A5AAA400
A5000000
A5000000
A5000000
ENDCHAR
STARTCHAR germandbls
ENCODING 223
SWIDTH 424 0
DWIDTH 8 0
BBX 8 8 0 0
BITMAP
1AA4
26A5
5825
58A9
58A6
580A
59A6
59A8
ENDCHAR
STARTCHAR agrave
ENCODING 224
SWIDTH 414 0
DWIDTH 8 0
BBX 8 11 0 0
BITMAP
0200
0140
0000
0290
05A0
09A0
0694
2658
26A4
5AA6
9406
ENDCHAR
STARTCHAR aacute
ENCODING 225
SWIDTH 414 0
DWIDTH 8 0
BBX 8 11 0 0
BITMAP
0020
0080
0000
0290
05A0
09A0
0694
2658
26A4
5AA6
9406
ENDCHAR
STARTCHAR acircumflex
ENCODING 226
SWIDTH 414 0
DWIDTH 8 0
BBX 8 11 0 0
BITMAP
0240
0960
0000
0290
05A0
09A0
0694
2658
26A4
5AA6
9406
ENDCHAR
STARTCHAR atilde
ENCODING 227
SWIDTH 414 0
DWIDTH 8 0
BBX 8 11 0 0
BITMAP
0644
0460
0000
0290
05A0
09A0
0694
2658
26A4
5AA6
9406
ENDCHAR
STARTCHAR adieresis
ENCODING 228
SWIDTH 414 0
DWIDTH 8 0
BBX 8 11 0 0
BITMAP
0630
0000
0000
0290
05A0
09A0
0694
2658
26A4
5AA6
9406
ENDCHAR
STARTCHAR aring
ENCODING 229
SWIDTH 414 0
DWIDTH 8 0
BBX 8 12 0 0
BITMAP
0180
0250
0180
0000
0290
05A0
09A0
0694
2658
26A4
5AA6
9406
ENDCHAR
STARTCHAR ae
ENCODING 230
SWIDTH 593 0
DWIDTH 12 0
BBX 12 8 0 0
BITMAP
009EA9
016AA9
026800
05AAA4
0966A4
162500
26A6A9
9816A9
ENDCHAR
STARTCHAR ccedilla
ENCODING 231
SWIDTH 446 0
DWIDTH 9 0
BBX 8 12 0 -4
BITMAP
06A9
15A5
2904
5800
5800
2904
15A5
06A9
0040
01A0
0014
01A0
ENDCHAR
STARTCHAR egrave
ENCODING 232
SWIDTH 363 0
DWIDTH 7 0
BBX 7 11 0 0
BITMAP
0200
0140
0000
5AA8
5AA8
5800
5AA0
5AA0
5800
5AA8
5AA8
ENDCHAR
STARTCHAR eacute
ENCODING 233
SWIDTH 363 0
DWIDTH 7 0
BBX 7 11 0 0
BITMAP
0020
0080
0000
5AA8
5AA8
5800
5AA0
5AA0
5800
5AA8
5AA8
ENDCHAR
STARTCHAR ecircumflex
ENCODING 234
SWIDTH 363 0
DWIDTH 7 0
BBX 7 11 0 0
BITMAP
0240
0960
0000
5AA8
5AA8
5800
5AA0
5AA0
5800
5AA8
5AA8
ENDCHAR
STARTCHAR edieresis
ENCODING 235
SWIDTH 363 0
DWIDTH 7 0
BBX 7 11 0 0
BITMAP
0960
0000
0000
5AA8
5AA8
5800
5AA0
5AA0
5800
5AA8
5AA8
ENDCHAR
STARTCHAR igrave
ENCODING 236
SWIDTH 176 0
DWIDTH 4 0
BBX 3 11 0 0
BITMAP
50
20
00
58
58
58
58
58
58
58
58
ENDCHAR
STARTCHAR iacute
ENCODING 237
SWIDTH 176 0
DWIDTH 4 0
BBX 4 11 0 0
BITMAP
05
08
00
58
58
58
58
58
58
58
58
ENDCHAR
STARTCHAR icircumflex
ENCODING 238
SWIDTH 176 0
DWIDTH 4 0
BBX 4 11 0 0
BITMAP
60
89
00
58
58
58
58
58
58
58
58
ENDCHAR
STARTCHAR idieresis
ENCODING 239
SWIDTH 176 0
DWIDTH 4 0
BBX 4 11 0 0
BITMAP
C9
00
00
58
58
58
58
58
58
58
58
ENDCHAR
STARTCHAR eth
ENCODING 240
SWIDTH 455 0
DWIDTH 9 0
BBX 9 8 0 0
BITMAP
2AA400
2A9600
180940
000940
A90940
180940
2A9600
2AA400
ENDCHAR
STARTCHAR ntilde
ENCODING 241
SWIDTH 444 0
DWIDTH 9 0
BBX 8 11 0 0
BITMAP
0644
0464
0000
580A
5A0A
598A
5A9A
596A
589A
582A
581A
ENDCHAR
STARTCHAR ograve
ENCODING 242
SWIDTH 494 0
DWIDTH 10 0
BBX 10 11 0 0
BITMAP
014000
008000
000000
06A900
15A640
290580
580250
580250
290580
15A640
06A900
ENDCHAR
STARTCHAR oacute
ENCODING 243
SWIDTH 494 0
DWIDTH 10 0
BBX 10 11 0 0
BITMAP
001400
002000
000000
06A900
15A640
290580
580250
580250
290580
15A640
06A900
ENDCHAR
STARTCHAR ocircumflex
ENCODING 244
SWIDTH 494 0
DWIDTH 10 0
BBX 10 11 0 0
BITMAP
008000
021400
000000
06A900
15A640
290580
580250
580250
290580
15A640
06A900
ENDCHAR
STARTCHAR otilde
ENCODING 245
SWIDTH 494 0
DWIDTH 10 0
BBX 10 11 0 0
BITMAP
028400
052800
000000
06A900
15A640
290580
580250
580250
290580
15A640
06A900
ENDCHAR
STARTCHAR odieresis
ENCODING 246
SWIDTH 494 0
DWIDTH 10 0
BBX 10 11 0 0
BITMAP
025800
000000
000000
06A900
15A640
290580
580250
580250
290580
15A640
06A900
ENDCHAR
STARTCHAR divide
ENCODING 247
SWIDTH 418 0
DWIDTH 8 0
BBX 7 7 1 0
BITMAP
0600
0600
AAA4
0000
AAA4
0600
0600
ENDCHAR
STARTCHAR oslash
ENCODING 248
SWIDTH 494 0
DWIDTH 10 0
BBX 10 8 0 0
BITMAP
06A540
159600
291880
582250
588250
220580
08A640
11A900
ENDCHAR
STARTCHAR ugrave
ENCODING 249
SWIDTH 400 0
DWIDTH 8 0
BBX 8 11 0 0
BITMAP
0500
0200
0000
5825
5825
5825
5825
5825
2828
2698
0AA0
ENDCHAR
STARTCHAR uacute
ENCODING 250
SWIDTH 400 0
DWIDTH 8 0
BBX 8 11 0 0
BITMAP
0050
0080
0000
5825
5825
5825
5825
5825
2828
2698
0AA0
ENDCHAR
STARTCHAR ucircumflex
ENCODING 251
SWIDTH 400 0
DWIDTH 8 0
BBX 8 11 0 0
BITMAP
0200
0850
0000
5825
5825
5825
5825
5825
2828
2698
0AA0
ENDCHAR
STARTCHAR udieresis
ENCODING 252
SWIDTH 400 0
DWIDTH 8 0
BBX 8 11 0 0
BITMAP
0960
0000
0000
5825
5825
5825
5825
5825
2828
2698
0AA0
ENDCHAR
STARTCHAR yacute
ENCODING 253
SWIDTH 422 0
DWIDTH 8 0
BBX 8 11 0 0
BITMAP
0050
0080
0000
5816
2629
0998
05A0
0140
0250
0250
0250
ENDCHAR
STARTCHAR thorn
ENCODING 254
SWIDTH 412 0
DWIDTH 8 0
BBX 8 8 0 0
BITMAP
5800
5AA4
5805
5AA2
5AA2
5805
5AA4
5800
ENDCHAR
STARTCHAR ydieresis
ENCODING 255
SWIDTH 422 0
DWIDTH 8 0
BBX 8 11 0 0
BITMAP
0630
0000
0000
5816
2629
0998
05A0
0140
0250
0250
0250
ENDCHAR
STARTCHAR Edotaccent
ENCODING 278
SWIDTH 677 0
DWIDTH 14 0
BBX 12 19 1 0
BITMAP
000900
000D00
000000
A5AAAA
A5AAAA
A50000
A5AAAA
A50000
A50000
A5AAA4
A50000
A5AAA4
A5AAA4
A50000
A50000
A50000
A5AAAA
A5AAAA
A5AAAA
ENDCHAR
STARTCHAR edotaccent
ENCODING 279
SWIDTH 363 0
DWIDTH 7 0
BBX 7 11 0 0
BITMAP
0180
0280
0000
5AA8
5AA8
5800
5AA0
5AA0
5800
5AA8
5AA8
ENDCHAR
STARTCHAR dotlessi
ENCODING 305
SWIDTH 176 0
DWIDTH 4 0
BBX 3 8 0 0
BITMAP
58
58
58
58
58
58
58
58
ENDCHAR
STARTCHAR OE
ENCODING 338
SWIDTH 1221 0
DWIDTH 24 0
BBX 24 16 0 0
BITMAP
001AA800AAA9
0196A800AAA9
066400000000
0946A800AAA9
262400000000
288000000000
59400000AAA4
5A0000000000
5A000000AAA4
5A000000AAA4
294000000000
268000000000
09A400000000
066AA800AAA9
0196A800AAA9
001AA800AAA9
ENDCHAR
STARTCHAR oe
ENCODING 339
SWIDTH 637 0
DWIDTH 13 0
BBX 13 8 0 0
BITMAP
06A06A40
15A06A40
29000000
58006900
58006900
29000000
15A06A40
06A06A40
ENDCHAR
STARTCHAR Wcircumflex
ENCODING 372
SWIDTH 972 0
DWIDTH 19 0
BBX 19 21 0 0
BITMAP
0001940000
0002620000
0009898000
0016025000
0000000000
5600960168
5900A50258
2940650294
2581680590
16825905A0
1642954960
0A51958A50
0965A29640
05A5629680
0592565580
0296596940
025985A500
0168859200
0165429500
00A5025800
0096016800
ENDCHAR
STARTCHAR wcircumflex
ENCODING 373
SWIDTH 521 0
DWIDTH 10 0
BBX 10 11 0 0
BITMAP
009000
025800
000000
9494A0
58A560
196960
2A6A50
276680
16A580
0A9640
094A40
ENDCHAR
STARTCHAR Ycircumflex
ENCODING 374
SWIDTH 769 0
DWIDTH 15 0
BBX 15 21 0 0
BITMAP
00194000
00252000
00989400
01602500
00000000
59400258
258009A4
1A601660
05942580
02589940
01A62600
00995800
00259400
00111000
00055000
000A5000
000A5000
000A5000
000A5000
000A5000
000A5000
ENDCHAR
STARTCHAR ycircumflex
ENCODING 375
SWIDTH 422 0
DWIDTH 8 0
BBX 8 11 0 0
BITMAP
0240
0960
0000
5816
2629
0998
05A0
0140
0250
0250
0250
ENDCHAR
STARTCHAR Ydieresis
ENCODING 376
SWIDTH 769 0
DWIDTH 15 0
BBX 15 21 0 0
BITMAP
01A42900
02085140
02085140
01A42900
00000000
59400258
258009A4
1A601660
05942580
02589940
01A62600
00995800
00259400
00111000
00055000
000A5000
000A5000
000A5000
000A5000
000A5000
000A5000
ENDCHAR
STARTCHAR circumflex
ENCODING 710
SWIDTH 298 0
DWIDTH 6 0
BBX 4 2 1 9
BITMAP
24
96
ENDCHAR
STARTCHAR dotaccent
ENCODING 729
SWIDTH 212 0
DWIDTH 4 0
BBX 2 2 1 9
BITMAP
60
A0
ENDCHAR
STARTCHAR ring
ENCODING 730
SWIDTH 212 0
DWIDTH 4 0
BBX 3 3 1 9
BITMAP
60
94
60
ENDCHAR
STARTCHAR tilde
ENCODING 732
SWIDTH 329 0
DWIDTH 7 0
BBX 5 2 1 9
BITMAP
6440
4600
ENDCHAR
STARTCHAR gravecomb
ENCODING 768
SWIDTH 0 0
DWIDTH 0 0
BBX 2 2 1 9
BITMAP
80
20
ENDCHAR
STARTCHAR acutecomb
ENCODING 769
SWIDTH 0 0
DWIDTH 0 0
BBX 2 2 1 9
BITMAP
20
80
ENDCHAR
STARTCHAR uni0302
ENCODING 770
SWIDTH 0 0
DWIDTH 0 0
BBX 4 2 1 9
BITMAP
24
96
ENDCHAR
STARTCHAR tildecomb
ENCODING 771
SWIDTH 0 0
DWIDTH 0 0
BBX 5 2 1 9
BITMAP
6440
4600
ENDCHAR
STARTCHAR uni0307
ENCODING 775
SWIDTH 0 0
DWIDTH 0 0
BBX 2 2 1 9
BITMAP
60
A0
ENDCHAR
STARTCHAR uni0308
ENCODING 776
SWIDTH 0 0
DWIDTH 0 0
BBX 4 1 1 10
BITMAP
96
ENDCHAR
STARTCHAR uni030A
ENCODING 778
SWIDTH 0 0
DWIDTH 0 0
BBX 3 3 1 9
BITMAP
60
94
60
ENDCHAR
STARTCHAR uni0327
ENCODING 807
SWIDTH 0 0
DWIDTH 0 0
BBX 4 4 1 -4
BITMAP
10
68
05
68
ENDCHAR
STARTCHAR Wgrave
ENCODING 7808
SWIDTH 972 0
DWIDTH 19 0
BBX 19 21 0 0
BITMAP
0001600000
0000980000
0000280000
0000160000
0000000000
5600960168
5900A50258
2940650294
2581680590
16825905A0
1642954960
0A51958A50
0965A29640
05A5629680
0592565580
0296596940
025985A500
0168859200
0165429500
00A5025800
0096016800
ENDCHAR
STARTCHAR wgrave
ENCODING 7809
SWIDTH 521 0
DWIDTH 10 0
BBX 10 11 0 0
BITMAP
005000
002000
000000
9494A0
58A560
196960
2A6A50
276680
16A580
0A9640
094A40
ENDCHAR
STARTCHAR Wacute
ENCODING 7810
SWIDTH 972 0
DWIDTH 19 0
BBX 19 21 0 0
BITMAP
0000260000
0000580000
0000940000
0001600000
0000000000
5600960168
5900A50258
2940650294
2581680590
16825905A0
1642954960
0A51958A50
0965A29640
05A5629680
0592565580
0296596940
025985A500
0168859200
0165429500
00A5025800
0096016800
ENDCHAR
STARTCHAR wacute
ENCODING 7811
SWIDTH 521 0
DWIDTH 10 0
BBX 10 11 0 0
BITMAP
002000
005000
000000
9494A0
58A560
196960
2A6A50
276680
16A580
0A9640
094A40
ENDCHAR
STARTCHAR Wdieresis
ENCODING 7812
SWIDTH 972 0
DWIDTH 19 0
BBX 19 21 0 0
BITMAP
001A429000
0020851400
0020851400
001A429000
0000000000
5600960168
5900A50258
2940650294
2581680590
16825905A0
1642954960
0A51958A50
0965A29640
05A5629680
0592565580
0296596940
025985A500
0168859200
0165429500
00A5025800
0096016800
ENDCHAR
STARTCHAR wdieresis
ENCODING 7813
SWIDTH 521 0
DWIDTH 10 0
BBX 10 11 0 0
BITMAP
018C00
000000
000000
9494A0
58A560
196960
2A6A50
276680
16A580
0A9640
094A40
ENDCHAR
STARTCHAR uni1E9E
ENCODING 7838
SWIDTH 784 0
DWIDTH 16 0
BBX 14 16 1 0
BITMAP
A5AAAA00
A5AAAA00
A5000000
A5AAAA00
A5009600
A5026900
A5029800
A5096240
A5165650
A5114960
A50005A0
A50005A0
A5000960
A52AA650
A52AA980
A52AA900
ENDCHAR
STARTCHAR Ygrave
ENCODING 7922
SWIDTH 769 0
DWIDTH 15 0
BBX 15 21 0 0
BITMAP
00160000
00094000
00028000
00026000
00000000
59400258
258009A4
1A601660
05942580
02589940
01A62600
00995800
00259400
00111000
00055000
000A5000
000A5000
000A5000
000A5000
000A5000
000A5000
ENDCHAR
STARTCHAR ygrave
ENCODING 7923
SWIDTH 422 0
DWIDTH 8 0
BBX 8 11 0 0
BITMAP
0140
0080
0000
5816
2629
0998
05A0
0140
0250
0250
0250
ENDCHAR
STARTCHAR endash
ENCODING 8211
SWIDTH 507 0
DWIDTH 10 0
BBX 8 2 1 3
BITMAP
AAAA
AAAA
ENDCHAR
STARTCHAR emdash
ENCODING 8212
SWIDTH 552 0
DWIDTH 11 0
BBX 9 2 1 3
BITMAP
AAAA80
AAAA80
ENDCHAR
STARTCHAR quoteleft
ENCODING 8216
SWIDTH 146 0
DWIDTH 3 0
BBX 3 3 0 5
BITMAP
80
94
44
ENDCHAR
STARTCHAR quoteright
ENCODING 8217
SWIDTH 146 0
DWIDTH 3 0
BBX 3 3 0 5
BITMAP
94
54
04
ENDCHAR
STARTCHAR quotesinglbase
ENCODING 8218
SWIDTH 146 0
DWIDTH 3 0
BBX 3 2 0 -3
BITMAP
94
14
ENDCHAR
STARTCHAR quotedblleft
ENCODING 8220
SWIDTH 297 0
DWIDTH 6 0
BBX 6 3 0 5
BITMAP
8100
9550
4510
ENDCHAR
STARTCHAR quotedblright
ENCODING 8221
SWIDTH 297 0
DWIDTH 6 0
BBX 6 3 0 5
BITMAP
9550
5550
0410
ENDCHAR
STARTCHAR quotedblbase
ENCODING 8222
SWIDTH 297 0
DWIDTH 6 0
BBX 6 2 0 -3
BITMAP
9550
1450
ENDCHAR
STARTCHAR bullet
ENCODING 8226
SWIDTH 302 0
DWIDTH 6 0
BBX 4 4 1 2
BITMAP
69
82
82
69
ENDCHAR
STARTCHAR ellipsis
ENCODING 8230
SWIDTH 528 0
DWIDTH 11 0
BBX 10 2 0 0
BITMAP
145050
589460
ENDCHAR
STARTCHAR guilsinglleft
ENCODING 8249
SWIDTH 178 0
DWIDTH 4 0
BBX 2 4 1 2
BITMAP
50
50
80
50
ENDCHAR
STARTCHAR guilsinglright
ENCODING 8250
SWIDTH 178 0
DWIDTH 4 0
BBX 2 4 1 2
BITMAP
90
50
60
80
ENDCHAR
STARTCHAR fraction
ENCODING 8260
SWIDTH 362 0
DWIDTH 7 0
BBX 7 8 0 0
BITMAP
0098
00A0
0260
0580
0940
1600
2500
5800
ENDCHAR
STARTCHAR uni2074
ENCODING 8308
SWIDTH 204 0
DWIDTH 4 0
BBX 4 4 0 4
BITMAP
14
24
55
15
ENDCHAR
STARTCHAR Euro
ENCODING 8364
SWIDTH 462 0
DWIDTH 9 0
BBX 9 8 0 0
BITMAP
02A900
09A940
110500
AA4000
AA4000
110500
09A940
02A900
ENDCHAR
STARTCHAR trademark
ENCODING 8482
SWIDTH 461 0
DWIDTH 9 0
BBX 9 4 0 4
BITMAP
BD9140
109940
108140
108140
ENDCHAR
STARTCHAR minus
ENCODING 8722
SWIDTH 420 0
DWIDTH 8 0
BBX 8 2 0 3
BITMAP
7FFE
7FFE
ENDCHAR
STARTCHAR uni2215
ENCODING 8725
SWIDTH 278 0
DWIDTH 6 0
BBX 6 8 0 0
BITMAP
0250
0580
0980
0940
1600
2500
2400
5800
ENDCHAR
STARTCHAR .notdef
ENCODING -1
SWIDTH 500 0
DWIDTH 10 0
BBX 8 23 1 -5
BITMAP
FFFF
C003
C003
C003
C003
C003
C003
C003
C003
C003
C003
C003
C003
C003
C003
C003
C003
C003
C003
C003
C003
C003
FFFF
ENDCHAR
STARTCHAR NULL
ENCODING -1
SWIDTH 600 0
DWIDTH 12 0
BBX 1 1 0 0
BITMAP
00
ENDCHAR
STARTCHAR acutecomb.case
ENCODING -1
SWIDTH 0 0
DWIDTH 0 0
BBX 5 4 1 17
BITMAP
0940
1600
2800
9800
ENDCHAR
STARTCHAR ampersand.case
ENCODING -1
SWIDTH 797 0
DWIDTH 16 0
BBX 15 16 0 0
BITMAP
002A9000
019A9800
026A6500
02949600
01949600
02996500
02655800
01965000
19598040
26266150
59899598
5A025964
5A416650
26A95980
09A92650
02AA4960
ENDCHAR
STARTCHAR asciicircum.case
ENCODING -1
SWIDTH 540 0
DWIDTH 11 0
BBX 10 8 0 8
BITMAP
002000
009400
016400
025600
058940
0A0580
260250
5800A0
ENDCHAR
STARTCHAR asciitilde.case
ENCODING -1
SWIDTH 640 0
DWIDTH 13 0
BBX 11 5 1 6
BITMAP
6A9004
801AA4
6A9018
AAA694
401AA4
ENDCHAR
STARTCHAR asterisk.case
ENCODING -1
SWIDTH 482 0
DWIDTH 10 0
BBX 8 7 1 9
BITMAP
0180
0184
6424
A019
0410
2594
0850
ENDCHAR
STARTCHAR at.case
ENCODING -1
SWIDTH 915 0
DWIDTH 18 0
BBX 17 16 1 0
BITMAP
006AA90000
025AA59000
0990019400
2606A52500
58241A0A00
94869A0940
A0941A0580
A1600A0580
A0A00A0580
A0941A0940
942698A200
5806950600
260001A400
0990010000
025AA54000
006AA90000
ENDCHAR
STARTCHAR backslash.case
ENCODING -1
SWIDTH 504 0
DWIDTH 10 0
BBX 10 18 0 -1
BITMAP
960000
590000
298000
258000
165000
096000
096000
059400
025800
026800
006500
009600
005A00
002940
002580
001680
000A50
000960
ENDCHAR
STARTCHAR bar.case
ENCODING -1
SWIDTH 262 0
DWIDTH 5 0
BBX 4 18 1 -1
BITMAP
A5
A5
A5
A5
A5
A5
A5
A5
A5
A5
A5
A5
A5
A5
A5
A5
A5
A5
ENDCHAR
STARTCHAR braceleft.case
ENCODING -1
SWIDTH 504 0
DWIDTH 10 0
BBX 8 18 1 -1
BITMAP
0556
0966
0960
0966
0960
0960
0960
0960
9960
9960
9960
0960
0960
0960
0960
0966
0966
0556
ENDCHAR
STARTCHAR braceright.case
ENCODING -1
SWIDTH 506 0
DWIDTH 10 0
BBX 8 18 1 -1
BITMAP
9550
9960
9960
0960
0960
0960
0960
0966
0966
0966
0960
0960
0960
0960
9960
0960
9960
9550
ENDCHAR
STARTCHAR bracketleft.case
ENCODING -1
SWIDTH 453 0
DWIDTH 9 0
BBX 7 18 1 -1
BITMAP
55A8
A5A8
A500
A5A8
A500
A500
A500
A500
A500
A500
A500
A500
A500
A500
A500
A5A8
A5A8
55A8
ENDCHAR
STARTCHAR bracketright.case
ENCODING -1
SWIDTH 453 0
DWIDTH 9 0
BBX 7 18 1 -1
BITMAP
A954
A968
A968
0168
0168
0168
0168
0168
0168
0168
0168
0168
0168
0168
A968
0168
A968
A954
ENDCHAR
STARTCHAR brokenbar.case
ENCODING -1
SWIDTH 262 0
DWIDTH 5 0
BBX 4 18 1 0
BITMAP
A5
A5
A5
A5
A5
A5
A5
A5
00
00
A5
A5
A5
A5
A5
A5
A5
A5
ENDCHAR
STARTCHAR bullet.case
ENCODING -1
SWIDTH 503 0
DWIDTH 10 0
BBX 8 8 1 4
BITMAP
06A0
2698
9416
A00A
A00A
9416
2698
0690
ENDCHAR
STARTCHAR uni0327.case
ENCODING -1
SWIDTH 0 0
DWIDTH 0 0
BBX 5 5 1 -5
BITMAP
1400
3A00
0140
4140
6900
ENDCHAR
STARTCHAR cent.case
ENCODING -1
SWIDTH 577 0
DWIDTH 12 0
BBX 10 18 1 -1
BITMAP
005800
005800
005400
01A900
090180
21A910
59A940
960100
A50000
A50000
960100
59A940
21A910
090180
01A900
005400
005800
005800
ENDCHAR
STARTCHAR uni0302.case
ENCODING -1
SWIDTH 0 0
DWIDTH 0 0
BBX 8 4 1 17
BITMAP
0590
0958
2625
9816
ENDCHAR
STARTCHAR colon.case
ENCODING -1
SWIDTH 262 0
DWIDTH 5 0
BBX 4 10 1 0
BITMAP
A5
A5
A5
00
00
00
00
A5
A5
A5
ENDCHAR
STARTCHAR comma.case
ENCODING -1
SWIDTH 338 0
DWIDTH 7 0
BBX 5 5 1 -2
BITMAP
2580
2940
5A00
9600
9500
ENDCHAR
STARTCHAR copyright.case
ENCODING -1
SWIDTH 895 0
DWIDTH 18 0
BBX 18 16 0 0
BITMAP
001AAA4000
0096A96000
0664019800
0940002600
2601A90940
2809A54580
5825050240
5828000250
5828000250
5825050240
2809A54580
2601A90940
0980002600
0664019800
0096A96000
001AAA4000
ENDCHAR
STARTCHAR currency.case
ENCODING -1
SWIDTH 676 0
DWIDTH 14 0
BBX 12 11 1 1
BITMAP
180054
660165
54A958
126990
098280
094250
098280
126984
98A925
650098
180020
ENDCHAR
STARTCHAR degree.case
ENCODING -1
SWIDTH 413 0
DWIDTH 8 0
BBX 8 7 0 9
BITMAP
0AA0
2698
5826
5816
5825
2698
0690
ENDCHAR
STARTCHAR uni0308.case
ENCODING -1
SWIDTH 0 0
DWIDTH 0 0
BBX 10 4 1 17
BITMAP
690A40
821450
821450
690A40
ENDCHAR
STARTCHAR divide.case
ENCODING -1
SWIDTH 618 0
DWIDTH 12 0
BBX 11 10 1 3
BITMAP
006400
008800
006400
000000
AAAAA4
AAAAA4
AAAAA4
006400
008800
006400
ENDCHAR
STARTCHAR uni2215.case
ENCODING -1
SWIDTH 483 0
DWIDTH 10 0
BBX 9 16 0 0
BITMAP
002580
002980
005940
009600
00A600
016500
025800
029800
059400
096000
0A5000
164000
258000
294000
590000
960000
ENDCHAR
STARTCHAR dollar.case
ENCODING -1
SWIDTH 660 0
DWIDTH 13 0
BBX 13 18 0 -1
BITMAP
00160000
00564000
06566800
26566600
29965A00
5A162400
59910000
265A4000
09656400
01959500
00165940
00156580
06162580
19965940
26566600
0A565800
00564000
00160000
ENDCHAR
STARTCHAR eight.case
ENCODING -1
SWIDTH 561 0
DWIDTH 11 0
BBX 11 16 0 0
BITMAP
02AA00
09A990
26AA60
5A4294
5A0258
594254
256954
259190
165A60
246594
5A0654
5A0258
594294
26AA60
19A990
02AA00
ENDCHAR
STARTCHAR ellipsis.case
ENCODING -1
SWIDTH 766 0
DWIDTH 15 0
BBX 14 3 1 0
BITMAP
A5294A50
A5294A50
A5294A50
ENDCHAR
STARTCHAR emdash.case
ENCODING -1
SWIDTH 790 0
DWIDTH 16 0
BBX 14 3 1 6
BITMAP
AAAAAA90
AAAAAA90
AAAAAA90
ENDCHAR
STARTCHAR endash.case
ENCODING -1
SWIDTH 721 0
DWIDTH 14 0
BBX 13 3 1 6
BITMAP
AAAAAA40
AAAAAA40
AAAAAA40
ENDCHAR
STARTCHAR equal.case
ENCODING -1
SWIDTH 618 0
DWIDTH 12 0
BBX 11 9 1 3
BITMAP
AAAAA4
AAAAA4
000000
AAAAA4
000000
AAAAA4
000000
AAAAA4
AAAAA4
ENDCHAR
STARTCHAR Euro.case
ENCODING -1
SWIDTH 767 0
DWIDTH 15 0
BBX 15 16 0 0
BITMAP
0006AA40
0066A964
0159A990
02590140
09A00000
05100000
6AAAA000
00000000
6AAAA000
6AAAA000
05100000
09A00000
02590140
0159A990
0065A960
0006AA40
ENDCHAR
STARTCHAR exclam.case
ENCODING -1
SWIDTH 262 0
DWIDTH 5 0
BBX 4 16 1 0
BITMAP
A5
A5
A5
A5
A5
A5
A5
A5
A5
A5
A5
54
00
A5
A5
A5
ENDCHAR
STARTCHAR exclamdown.case
ENCODING -1
SWIDTH 262 0
DWIDTH 5 0
BBX 4 16 1 -4
BITMAP
A5
A5
A5
00
54
A5
A5
A5
A5
A5
A5
A5
A5
A5
A5
A5
ENDCHAR
STARTCHAR five.case
ENCODING -1
SWIDTH 558 0
DWIDTH 11 0
BBX 11 16 0 0
BITMAP
2AAAA0
2AAAA0
2AAAA0
000000
294000
294000
296900
294180
296A20
156994
000294
550258
594294
26A960
19A990
02AA00
ENDCHAR
STARTCHAR four.case
ENCODING -1
SWIDTH 585 0
DWIDTH 12 0
BBX 11 16 0 0
BITMAP
002580
005940
009600
016500
025800
059400
096000
165000
258A50
144A50
6A8A58
6A8A58
000A50
6A8A58
000A50
000A50
ENDCHAR
STARTCHAR uni2074.case
ENCODING -1
SWIDTH 312 0
DWIDTH 6 0
BBX 6 7 0 9
BITMAP
0940
1600
2500
1510
6960
6960
0160
ENDCHAR
STARTCHAR fraction.case
ENCODING -1
SWIDTH 655 0
DWIDTH 13 0
BBX 11 16 1 0
BITMAP
000058
000094
000160
000280
000980
000A00
002500
005800
009400
016000
025000
058000
0A0000
260000
680000
940000
ENDCHAR
STARTCHAR gravecomb.case
ENCODING -1
SWIDTH 0 0
DWIDTH 0 0
BBX 5 4 1 17
BITMAP
9800
2800
1600
0940
ENDCHAR
STARTCHAR greater.case
ENCODING -1
SWIDTH 677 0
DWIDTH 14 0
BBX 12 14 1 1
BITMAP
400000
640000
960000
59A000
659900
066590
00A658
005965
066180
659900
596000
964000
640000
800000
ENDCHAR
STARTCHAR guillemotleft.case
ENCODING -1
SWIDTH 666 0
DWIDTH 13 0
BBX 12 10 1 3
BITMAP
014008
094064
264158
898555
610254
990660
654599
660264
194065
024018
ENDCHAR
STARTCHAR guillemotright.case
ENCODING -1
SWIDTH 666 0
DWIDTH 13 0
BBX 12 10 1 3
BITMAP
900600
540590
660264
984555
164164
258199
994665
664258
580590
900600
ENDCHAR
STARTCHAR guilsinglleft.case
ENCODING -1
SWIDTH 338 0
DWIDTH 7 0
BBX 5 10 1 3
BITMAP
0140
0940
2640
8980
6100
9900
6540
6600
1940
0240
ENDCHAR
STARTCHAR guilsinglright.case
ENCODING -1
SWIDTH 338 0
DWIDTH 7 0
BBX 5 10 1 3
BITMAP
9000
5400
6600
9840
1640
2580
9940
6640
5800
9000
ENDCHAR
STARTCHAR hyphen.case
ENCODING -1
SWIDTH 445 0
DWIDTH 9 0
BBX 7 3 1 6
BITMAP
AAA8
AAA8
AAA8
ENDCHAR
STARTCHAR less.case
ENCODING -1
SWIDTH 677 0
DWIDTH 14 0
BBX 12 14 1 1
BITMAP
000005
000025
000199
0019A5
009668
061580
599500
669900
066590
009668
001965
000199
000028
000001
ENDCHAR
STARTCHAR logicalnot.case
ENCODING -1
SWIDTH 618 0
DWIDTH 12 0
BBX 11 8 1 2
BITMAP
AAAAA4
000000
AAAAA4
AAAAA4
000000
000294
000294
000294
ENDCHAR
STARTCHAR uni00B5.case
ENCODING -1
SWIDTH 792 0
DWIDTH 16 0
BBX 15 20 1 -4
BITMAP
A5005A00
A5005A00
A5005A00
A5005A00
A5005A00
A5005A00
A5005A00
A5005A00
A5005A00
A5005A00
A5005A00
A5005A00
A541A640
A56A9864
A5AA6564
A5AA81A4
A5000000
A5000000
A5000000
A5000000
ENDCHAR
STARTCHAR minus.case
ENCODING -1
SWIDTH 618 0
DWIDTH 12 0
BBX 11 3 1 6
BITMAP
AAAAA4
AAAAA4
AAAAA4
ENDCHAR
STARTCHAR multiply.case
ENCODING -1
SWIDTH 580 0
DWIDTH 12 0
BBX 9 10 1 3
BITMAP
100500
281940
996580
259640
065900
196400
659A00
565680
190940
040100
ENDCHAR
STARTCHAR nine.case
ENCODING -1
SWIDTH 558 0
DWIDTH 11 0
BBX 11 16 0 0
BITMAP
02AA00
09A990
26AA60
5A4294
5A0258
5A4258
15A658
21A658
090258
01A658
000258
450258
5A4294
26AA60
19A990
02AA00
ENDCHAR
STARTCHAR numbersign.case
ENCODING -1
SWIDTH 776 0
DWIDTH 16 0
BBX 14 16 1 0
BITMAP
02582940
02942940
02941500
25A6AA90
05A00000
2566AA90
1966AA90
09605000
0510A500
AAA96940
AAA96940
AAA55940
00025800
25825400
25429400
29419000
ENDCHAR
STARTCHAR one.case
ENCODING -1
SWIDTH 378 0
DWIDTH 8 0
BBX 7 16 0 0
BITMAP
6658
6658
0258
6658
0258
0258
0258
0258
0258
0258
0258
0258
0258
0258
0258
0258
ENDCHAR
STARTCHAR onehalf.case
ENCODING -1
SWIDTH 735 0
DWIDTH 15 0
BBX 13 16 1 0
BITMAP
99002600
99002800
09009400
09016000
09025000
09058000
09094000
00160000
00290000
00986A00
00A09980
02505580
05801640
09405500
1600AA40
2500AA40
ENDCHAR
STARTCHAR onequarter.case
ENCODING -1
SWIDTH 722 0
DWIDTH 14 0
BBX 13 16 1 0
BITMAP
99002600
99002800
09009400
09016000
09025000
09058000
09094000
00160000
00290000
00982500
00A05800
02509400
05805440
09419540
16019540
25000540
ENDCHAR
STARTCHAR uni00B9.case
ENCODING -1
SWIDTH 306 0
DWIDTH 6 0
BBX 4 7 1 9
BITMAP
99
99
09
09
09
09
09
ENDCHAR
STARTCHAR ordfeminine.case
ENCODING -1
SWIDTH 456 0
DWIDTH 9 0
BBX 7 7 1 9
BITMAP
0980
0A40
1750
25A0
2A94
5A98
9028
ENDCHAR
STARTCHAR ordmasculine.case
ENCODING -1
SWIDTH 489 0
DWIDTH 10 0
BBX 8 8 1 8
BITMAP
1AA0
6598
9415
A006
9412
8695
2018
0690
ENDCHAR
STARTCHAR paragraph.case
ENCODING -1
SWIDTH 893 0
DWIDTH 18 0
BBX 17 16 0 0
BITMAP
02AAAAAA40
19AAAAAA40
2900000000
58AAAAAA40
5600114140
5A00168280
5AAA968280
21AA968280
0900168280
01AA968280
0000168280
0000168280
0000168280
0000168280
0000168280
0000168280
ENDCHAR
STARTCHAR parenleft.case
ENCODING -1
SWIDTH 290 0
DWIDTH 6 0
BBX 6 18 0 -1
BITMAP
05A0
0960
0640
1580
2540
2940
5A00
5A00
5A00
5A00
5A00
5A00
2940
2540
1580
0640
0960
05A0
ENDCHAR
STARTCHAR parenright.case
ENCODING -1
SWIDTH 290 0
DWIDTH 6 0
BBX 7 18 -1 -1
BITMAP
5A00
2540
1680
0A50
0960
0560
05A0
01A0
0294
0294
01A0
05A0
0560
0960
0A50
1680
2580
5A00
ENDCHAR
STARTCHAR percent.case
ENCODING -1
SWIDTH 827 0
DWIDTH 17 0
BBX 16 16 0 0
BITMAP
0AA000A6
26980268
58260594
58160960
58252690
26985980
06909600
00026500
00268000
005946A0
00961AA9
02692916
0598280A
09602916
26501695
698006A4
ENDCHAR
STARTCHAR period.case
ENCODING -1
SWIDTH 262 0
DWIDTH 5 0
BBX 4 3 1 0
BITMAP
A5
A5
A5
ENDCHAR
STARTCHAR periodcentered.case
ENCODING -1
SWIDTH 262 0
DWIDTH 5 0
BBX 4 3 1 6
BITMAP
A5
A5
A5
ENDCHAR
STARTCHAR plus.case
ENCODING -1
SWIDTH 616 0
DWIDTH 12 0
BBX 11 10 1 3
BITMAP
015800
015800
015800
015800
A559A4
A559A4
A559A4
015800
015800
015800
ENDCHAR
STARTCHAR plusminus.case
ENCODING -1
SWIDTH 618 0
DWIDTH 12 0
BBX 11 14 1 0
BITMAP
015800
015800
015800
015800
A559A4
A559A4
A559A4
015800
015800
015800
000000
AAAAA4
AAAAA4
AAAAA4
ENDCHAR
STARTCHAR question.case
ENCODING -1
SWIDTH 598 0
DWIDTH 12 0
BBX 10 16 1 0
BITMAP
06A900
26A580
59A650
960960
5405A0
0008A0
002660
009980
016640
025800
025800
015400
000000
025800
025800
025800
ENDCHAR
STARTCHAR questiondown.case
ENCODING -1
SWIDTH 598 0
DWIDTH 12 0
BBX 10 16 1 -4
BITMAP
025800
025800
025800
000000
015400
025800
025800
199400
266000
998000
A20000
A50550
960960
59A650
26A580
06A900
ENDCHAR
STARTCHAR quotedbl.case
ENCODING -1
SWIDTH 464 0
DWIDTH 9 0
BBX 9 5 0 11
BITMAP
961580
961580
961580
961580
961580
ENDCHAR
STARTCHAR quotedblbase.case
ENCODING -1
SWIDTH 464 0
DWIDTH 9 0
BBX 9 5 0 -2
BITMAP
961580
961580
961580
160180
160180
ENDCHAR
STARTCHAR quotedblleft.case
ENCODING -1
SWIDTH 464 0
DWIDTH 9 0
BBX 9 5 0 11
BITMAP
941500
941500
961580
961580
961580
ENDCHAR
STARTCHAR quotedblright.case
ENCODING -1
SWIDTH 464 0
DWIDTH 9 0
BBX 9 5 0 11
BITMAP
961580
961580
961580
160180
160180
ENDCHAR
STARTCHAR quoteleft.case
ENCODING -1
SWIDTH 212 0
DWIDTH 4 0
BBX 4 5 0 11
BITMAP
94
94
96
96
96
ENDCHAR
STARTCHAR quoteright.case
ENCODING -1
SWIDTH 212 0
DWIDTH 4 0
BBX 4 5 0 11
BITMAP
96
96
96
16
16
ENDCHAR
STARTCHAR quotesinglbase.case
ENCODING -1
SWIDTH 212 0
DWIDTH 4 0
BBX 4 5 0 -2
BITMAP
96
96
96
16
16
ENDCHAR
STARTCHAR quotesingle.case
ENCODING -1
SWIDTH 212 0
DWIDTH 4 0
BBX 4 5 0 11
BITMAP
96
96
96
96
96
ENDCHAR
STARTCHAR registered.case
ENCODING -1
SWIDTH 895 0
DWIDTH 18 0
BBX 18 16 0 0
BITMAP
001AAA4000
0096A96000
0664019800
0940002600
2606A90940
2816A94580
5816058240
5816AA4250
5816B90250
5816260240
28160A0580
2605094940
0980002600
0664019800
0096A96000
001AAA4000
ENDCHAR
STARTCHAR uni030A.case
ENCODING -1
SWIDTH 0 0
DWIDTH 0 0
BBX 4 4 1 17
BITMAP
69
82
82
69
ENDCHAR
STARTCHAR section.case
ENCODING -1
SWIDTH 645 0
DWIDTH 13 0
BBX 12 20 0 -3
BITMAP
006A90
06AAA9
0A6A5A
168014
166900
0995A0
065698
046965
165196
258096
258265
266948
086AA0
0281A8
001A65
010096
59AAA2
21AA45
090024
01AA80
ENDCHAR
STARTCHAR semicolon.case
ENCODING -1
SWIDTH 338 0
DWIDTH 7 0
BBX 5 12 1 -2
BITMAP
2580
2580
2580
0000
0000
0000
0000
2580
2940
5A00
9600
9500
ENDCHAR
STARTCHAR seven.case
ENCODING -1
SWIDTH 505 0
DWIDTH 10 0
BBX 10 16 0 0
BITMAP
6AAA90
6AAA90
000000
6AAA90
000140
002580
002540
001940
005A00
009600
00A500
016800
025800
029400
059000
096000
ENDCHAR
STARTCHAR six.case
ENCODING -1
SWIDTH 558 0
DWIDTH 11 0
BBX 11 16 0 0
BITMAP
02AA40
09A990
26A960
594294
5A0144
5A0000
5A6900
5A0180
5A6A20
5A6994
5A0294
5A0258
594294
26A960
19A990
02AA00
ENDCHAR
STARTCHAR slash.case
ENCODING -1
SWIDTH 504 0
DWIDTH 10 0
BBX 10 18 0 -1
BITMAP
000960
000A50
001680
002580
002940
005A00
009600
006500
026800
025800
059400
096000
096000
165000
258000
298000
590000
960000
ENDCHAR
STARTCHAR uni00AD.case
ENCODING -1
SWIDTH 445 0
DWIDTH 9 0
BBX 7 3 1 6
BITMAP
AAA8
AAA8
AAA8
ENDCHAR
STARTCHAR sterling.case
ENCODING -1
SWIDTH 618 0
DWIDTH 12 0
BBX 12 16 0 0
BITMAP
01AA90
09AA54
26AA65
294095
294000
144000
6AAA80
000000
6AAA80
6AAA80
000000
165000
104000
6AAAA9
6AAAA9
6AAAA9
ENDCHAR
STARTCHAR three.case
ENCODING -1
SWIDTH 558 0
DWIDTH 11 0
BBX 11 16 0 0
BITMAP
02AA40
19A990
26A960
594294
450258
000194
001950
000190
001A20
001994
000294
450258
594294
26A960
19A990
02AA00
ENDCHAR
STARTCHAR threequarters.case
ENCODING -1
SWIDTH 722 0
DWIDTH 14 0
BBX 13 16 1 0
BITMAP
6A002600
99402800
00809400
06016000
05825000
99458000
6A094000
00160000
00290000
00982500
00A05800
02509400
05805440
09419540
16019540
25000540
ENDCHAR
STARTCHAR uni00B3.case
ENCODING -1
SWIDTH 332 0
DWIDTH 7 0
BBX 5 7 1 9
BITMAP
6A00
9940
0080
0600
0580
9940
6A00
ENDCHAR
STARTCHAR tildecomb.case
ENCODING -1
SWIDTH 0 0
DWIDTH 0 0
BBX 8 3 1 17
BITMAP
2901
8245
4064
ENDCHAR
STARTCHAR trademark.case
ENCODING -1
SWIDTH 850 0
DWIDTH 17 0
BBX 17 8 0 8
BITMAP
6AA5701D40
6AA5682940
0541669940
054169A940
0541665940
0541614940
0541600940
0541600940
ENDCHAR
STARTCHAR two.case
ENCODING -1
SWIDTH 558 0
DWIDTH 11 0
BBX 11 16 0 0
BITMAP
02AA00
19A990
26AA60
594294
550258
000258
000994
001660
006590
019940
026600
099800
111000
2AAAA0
2AAAA0
2AAAA0
ENDCHAR
STARTCHAR uni00B2.case
ENCODING -1
SWIDTH 339 0
DWIDTH 7 0
BBX 5 7 1 9
BITMAP
6A00
9980
4580
1940
5500
AA40
AA40
ENDCHAR
STARTCHAR underscore.case
ENCODING -1
SWIDTH 667 0
DWIDTH 13 0
BBX 12 3 1 0
BITMAP
AAAAA9
AAAAA9
AAAAA9
ENDCHAR
STARTCHAR yen.case
ENCODING -1
SWIDTH 769 0
DWIDTH 15 0
BBX 15 16 0 0
BITMAP
59400258
25800994
1A601660
09942580
02589940
01666600
00995800
00258400
00155000
00050000
029A5A40
029A5A40
029A5A40
000A5000
000A5000
000A5000
ENDCHAR
STARTCHAR zero.case
ENCODING -1
SWIDTH 558 0
DWIDTH 11 0
BBX 11 16 0 0
BITMAP
02AA00
09A990
26AA60
594294
5A0258
5A0258
5A0258
5A0258
5A0258
5A0258
5A0258
5A0258
594294
26AA60
19A990
02AA40
ENDCHAR
ENDFONT
